<?xml version="1.0" encoding="utf-8"?>
<!-- Generator: Adobe Illustrator 21.0.2, SVG Export Plug-In . SVG Version: 6.00 Build 0)  -->
<svg version="1.1" id="Layer_1" xmlns="http://www.w3.org/2000/svg" xmlns:xlink="http://www.w3.org/1999/xlink" x="0px" y="0px"
	 viewBox="0 0 457.6 173.9" enable-background="new 0 0 457.6 173.9" xml:space="preserve">
<path fill-rule="evenodd" clip-rule="evenodd" fill="#2A343E" d="M3.1,129.6c0,1.9,0.5,2.4,2.3,2.4H18c1.9,0,2.3-0.4,2.3-2.3V44.1
	c0-1.7-0.5-2.2-2.1-2.2c-4.2,0-8.4,0-12.6,0c-2.2,0-2.5,0.4-2.5,2.6C3.1,44.5,3.1,115.4,3.1,129.6z"/>
<path fill-rule="evenodd" clip-rule="evenodd" fill="#F00843" d="M413.4,66.5c3.5-0.2,6.7-0.4,10-0.5c4.6-0.1,9.3-0.1,13.9,0.7
	c8.5,1.5,13.5,6.2,15.5,14.6c1,4.3,1.4,8.7,1.5,13.1c0.2,6.8,0.2,13.6-1.1,20.4c-0.9,4.6-2.5,8.9-6.2,12.1c-2.8,2.4-6.1,3.5-9.6,4.2
	c-4.6,0.9-9.3,1.2-14,1c-5.5-0.2-11.1-0.6-16.6-1c-2.8-0.2-5.5-0.7-8.3-1.1c-1.5-0.2-2.1-1-2.3-2.5c-0.1-0.5-0.1-0.9-0.1-1.4
	c0-27.1,0-54.2,0-81.4c0-0.3,0-0.6,0-0.9c0.1-1.9,0.4-2.2,2.4-2.2h12.3c2.2,0,2.5,0.3,2.5,2.5c0,7,0,14,0,20.9V66.5z M413.4,116.6
	c5.4,0.6,10.7,1.2,16.1,0.4c2.9-0.4,5.2-1.9,6.2-4.7c0.5-1.4,0.9-2.9,1-4.4c0.2-5.1,0.2-10.1,0.2-15.2c0-1.5-0.3-3-0.6-4.5
	c-1-4.6-3.4-6.7-8.1-6.9c-4.8-0.2-9.5-0.2-14.3-0.3c-0.1,0-0.3,0.1-0.5,0.1V116.6z"/>
<path fill-rule="evenodd" clip-rule="evenodd" fill="#2A343E" d="M197.8,93.4c0-2.1,0.2-4.2,0-6.2c-0.5-3.2-3-5.2-6.6-5.7
	c-1.6-0.2-3.3-0.3-5-0.3c-6.4,0-12.7,0-19.1,0c-2.7,0-2.8-0.1-2.8-2.7c0-2.8,0-5.6,0-8.5c0-1.2,0.5-1.8,1.7-2
	c9.7-1.8,19.4-2.1,29.2-1.3c4.1,0.3,8,1.2,11.7,3c4.7,2.4,7.2,6.4,7.9,11.5c0.3,1.9,0.4,3.9,0.4,5.9c0,12.8,0,25.5,0,38.3
	c0,0.3,0,0.5,0,0.7c-0.1,2.9-1,3.7-3.8,4.3c-8.2,1.6-16.6,2.1-25,2.2c-4.7,0-9.5-0.1-14.2-1c-6.6-1.3-10.8-5.1-12.1-11.8
	c-1-5.2-1.1-10.5,0.4-15.6c1.6-5.3,5.4-8.4,10.7-9.5c3.2-0.7,6.6-1,9.9-1.2c5.2-0.2,10.3,0,15.5-0.1H197.8z M197.9,104.8
	c-5.4,0-10.7-0.2-16.1,0c-3.2,0.1-4.8,1.9-5.2,5c-0.2,1.2-0.1,2.6,0.1,3.8c0.3,2.4,1.8,3.9,4.2,4.4c1.7,0.3,3.4,0.5,5.2,0.5
	c4,0.1,8-0.2,11.9-1.1V104.8z"/>
<path fill-rule="evenodd" clip-rule="evenodd" fill="#2A343E" d="M125.9,81.3c-2.8,0.1-5.6,0.8-7.3,3.4c-1.3,1.8-1.7,4-1.9,6.1
	c-0.5,5.7-0.5,11.5,0,17.2c0.2,2.5,0.7,5,2.6,7c1.8,2,4.2,2.6,6.7,2.6c6.7,0.1,13.3,0.1,20,0.2c0.4,0,0.8,0,1.2,0
	c2,0.1,2.4,0.5,2.5,2.5c0,2.7,0,5.4,0,8c0,1.9-0.6,2.5-2.5,2.9c-7.9,1.5-15.9,1.7-24,1.4c-4.8-0.2-9.6-0.8-14-3
	c-3.6-1.8-6-4.7-7.5-8.4c-1.8-4.5-2.4-9.3-2.4-14.1c-0.1-6.8,0.1-13.7,0.4-20.5c0.2-3.7,1.1-7.3,2.9-10.7c1.9-3.6,4.8-6,8.6-7.4
	c3.8-1.4,7.7-1.9,11.7-2.1c6.8-0.3,13.6-0.2,20.3,0.7c1.5,0.2,3,0.4,4.5,0.7c1.2,0.2,1.9,0.9,1.9,2.1c0,3.1,0,6.3,0,9.4
	c0,1.2-0.6,1.8-1.8,1.8h-11.3C136.5,81.1,129.4,81.2,125.9,81.3z"/>
<path fill-rule="evenodd" clip-rule="evenodd" fill="#F00843" d="M345.4,105.1c0.4,2.4,0.6,4.5,1.1,6.6c0.8,3.4,3.4,4.9,6.7,5.3
	c2.2,0.2,4.4,0.4,6.6,0.4c6.2,0,12.5,0,18.7,0c2.3,0,2.6,0.4,2.6,2.6c0,2.8,0,5.5,0,8.3c0,1.8-0.4,2.2-2.2,2.5
	c-9,1.6-18.1,1.7-27.2,1.3c-3.9-0.1-7.9-0.7-11.6-2.2c-5.7-2.2-8.8-6.7-10.3-12.4c-1.1-4.1-1.6-8.3-1.6-12.5c0-6,0.1-12.1,0.5-18.1
	c0.2-3.5,1.1-7,2.5-10.2c2.4-5.3,6.7-8.2,12.2-9.5c7.6-1.7,15.4-1.7,23.1-0.7c2.6,0.3,5.3,0.9,7.7,1.8c5.4,2,8.3,6.3,9.8,11.6
	c1.3,4.6,1.6,9.4,1.8,14.1c0.1,2.7,0,5.4,0,8.1c0,1.9-0.7,2.6-2.6,2.8c-0.8,0.1-1.6,0.1-2.4,0.1c-11.2,0-22.4,0-33.6,0H345.4z
	 M368.8,93.7c-0.3-2.5-0.6-4.8-1.1-7.1c-0.5-2.4-2.1-4.2-4.5-4.9c-4-1.2-8-1.1-12,0c-1.5,0.4-2.7,1.3-3.6,2.6c-1.9,2.9-2,6.2-2,9.5
	H368.8z"/>
<g>
	<path fill-rule="evenodd" clip-rule="evenodd" fill="#2A343E" d="M89.4,95.9C89.3,91,89,85.9,87.7,80.8c-1.5-5.5-4.5-9.8-9.9-12.1
		c-3-1.3-6.3-1.9-9.6-2.1c-4.5-0.2-9.1-0.3-13.6-0.2c-4.1,0.1-8.1,0.6-12,2c-3.9,1.4-6.9,3.9-8.9,7.6c-2.2,4.2-3,8.8-3.3,13.5
		c-0.3,5.4-0.4,10.8-0.2,16.2c0.1,3.8,0.7,7.5,1.4,11.3c0.6,3.5,2.1,6.8,4.6,9.4c3.2,3.3,7.4,4.7,11.8,5.4
		c5.7,0.9,11.5,0.9,17.3,0.6c3.9-0.2,7.8-0.7,11.5-2c3-1.1,5.5-2.8,7.4-5.3c2.1-2.8,3.1-5.9,3.8-9.2c1-4.6,1.2-9.2,1.2-14.1
		L89.4,95.9z M72.2,101.8c-0.2,2.7-0.4,5.6-0.9,8.4c-0.8,4.5-2.9,6.4-7.4,7.2c-3,0.5-6.1,0.5-9.1-0.1c-3.9-0.8-5.9-3-6.7-7.2
		c-0.9-5.3-0.8-10.7-0.6-16.1c0.1-1.6,0.3-3.2,0.5-4.7c0.9-5.1,2.9-7.3,8-7.8c2.9-0.3,5.9-0.2,8.8,0.2c4,0.6,6.1,3.2,6.7,7.9
		c0.4,2.8,0.5,5.7,0.7,8.8L72.2,101.8z"/>
</g>
<g>
	<path fill="#2A343E" d="M240.5,68.9c-0.3-1.4-0.6-2-1.7-2c0,0-0.1,0-0.1,0c-0.1,0-0.1,0-0.2,0c-2.3,0-9.6,0-12.9,0
		c-0.5,0-0.9,0-1.2,0c0,0,0,0,0,0c-0.2,0-0.4,0-0.6,0c0,0-0.1,0-0.1,0c0,0,0,0,0,0c0,0-0.1,0-0.1,0c0,0,0,0,0,0c0,0,0,0,0,0
		c-0.1,0-0.2,0-0.3,0c0,0,0,0-0.1,0c0,0,0,0,0,0c0,0,0,0,0,0c0,0,0,0,0,0c0,0,0,0,0,0l0,0h0c-0.1,0-0.1,0-0.2,0.1
		c-0.1,0-0.1,0.1-0.1,0.1c0,0,0,0,0,0c0,0,0,0,0,0c0,0-0.1,0.1-0.1,0.1l0,0c0,0,0,0.1-0.1,0.1c0,0,0,0,0,0c0,0.1-0.1,0.1-0.1,0.2
		c0,0,0,0,0,0l0,0c0,0,0,0,0,0c0,0,0,0.1-0.1,0.2c0,0,0,0,0,0c0,0,0,0,0,0c0,0.1,0,0.2,0,0.2c0,0,0,0,0,0c0,0,0,0,0,0
		c0,0,0,0.1,0,0.2c0,0,0,0,0,0c0,0,0,0,0,0c0,0.2,0,0.4,0.1,0.6c0,0.3,0.1,0.6,0.2,0.9c0,0,0,0,0,0c0,0,0,0,0,0
		c0.8,2.9,4.9,17.8,8.7,31.4l0,0c0,0.1,0,0.1,0.1,0.2c3.4,12.1,6.5,23.4,6.8,24.4c1.2,3.5,3.6,6.4,7.4,6.4c0,0,2.8-10.1,6.1-22.2
		C246.9,92.4,240.9,70.6,240.5,68.9z"/>
	<path fill="#2A343E" d="M281.3,68.5c0-0.2-0.1-0.3-0.1-0.5c-0.1-0.3-0.2-0.5-0.3-0.6c0,0,0,0,0-0.1c0,0,0,0,0,0c0,0,0,0,0,0
		c0,0-0.1-0.1-0.1-0.1l0,0c0,0,0,0.1,0.1,0.1c0,0,0,0,0,0c0,0.1,0.1,0.1,0.1,0.2l0,0l0,0c0,0,0,0,0,0c0,0,0,0,0,0c0,0,0,0.1,0.1,0.2
		c0,0,0,0,0,0c0,0,0,0,0,0c0,0.1,0,0.2,0,0.2c0,0,0,0,0,0c0,0,0,0,0,0c0,0,0,0.1,0,0.2c0,0,0,0,0,0c0,0,0,0,0,0c0,0.2,0,0.4-0.1,0.6
		c0,0.3-0.1,0.6-0.2,0.9c0,0,0,0,0,0c0,0,0,0,0,0c-0.8,2.9-4.8,17.6-8.6,31.1c0,0.1,0,0.2,0.1,0.3l0,0c0,0.1,0,0.1,0.1,0.2
		c3.4,12.1,6.5,23.4,6.8,24.4c1.2,3.5,3.6,6.4,7.4,6.4c0,0,1.3-4.7,3.1-11.4c0.7-2.7,1.6-5.7,2.4-8.8c0.2-0.6,0.3-1.2,0.5-1.9
		C287.9,93,282.1,71.5,281.3,68.5z"/>
	<path fill="#F00843" d="M322,68C322,68,322,68,322,68C322,68,322,68,322,68c0-0.1,0-0.1,0-0.2c0,0,0,0,0,0c0,0,0,0,0,0
		c0-0.1,0-0.2-0.1-0.2c0,0,0,0,0,0l0,0l0,0c0-0.1-0.1-0.1-0.1-0.2c0,0,0,0,0,0c0,0,0-0.1-0.1-0.1l0,0c0,0-0.1-0.1-0.1-0.1
		c0,0,0,0,0,0c0,0,0,0,0,0c0,0-0.1-0.1-0.1-0.1c-0.1,0-0.1-0.1-0.2-0.1l0,0l0,0c0,0,0,0,0,0c0,0,0,0,0,0c0,0,0,0,0,0c0,0,0,0,0,0
		c0,0,0,0-0.1,0c-0.1,0-0.2,0-0.3,0c0,0,0,0,0,0c0,0,0,0,0,0c-0.1,0-0.1,0-0.1,0c0,0,0,0,0,0c0,0-0.1,0-0.1,0c-0.2,0-0.3,0-0.6,0
		c0,0,0,0,0,0c-0.3,0-0.7,0-1.2,0c-3.3,0-10.5,0-12.9,0c-0.1,0-0.1,0-0.2,0c0,0-0.1,0-0.1,0c-1.1,0.1-1.4,0.7-1.7,2
		c-0.4,1.7-6.4,23.6-11.3,41.2c-0.2,0.6-0.3,1.3-0.5,1.9c-0.9,3.2-1.7,6.2-2.4,8.8c-1.9,6.8-3.1,11.4-3.1,11.4h0h12.1h0
		c3.8,0,6.3-2.9,7.4-6.4c0.3-1,3.5-12.3,6.8-24.4c0-0.1,0-0.1,0.1-0.2l0,0c3.8-13.6,7.9-28.5,8.7-31.4c0,0,0,0,0,0c0,0,0,0,0,0
		c0.1-0.3,0.2-0.6,0.2-0.9c0-0.2,0.1-0.4,0.1-0.6c0,0,0,0,0,0c0,0,0,0,0,0C322,68.1,322,68,322,68z"/>
	<path fill="#F00843" d="M281.1,68C281.1,68,281.1,68,281.1,68C281.1,68,281.1,68,281.1,68c0-0.1,0-0.1,0-0.2c0,0,0,0,0,0
		c0,0,0,0,0,0c0-0.1,0-0.2-0.1-0.2c0,0,0,0,0,0l0,0l0,0c0-0.1-0.1-0.1-0.1-0.2c0,0,0,0,0,0c0,0,0-0.1-0.1-0.1l0,0
		c0,0-0.1-0.1-0.1-0.1c0,0,0,0,0,0c0,0,0,0,0,0c0,0-0.1-0.1-0.1-0.1c-0.1,0-0.1-0.1-0.2-0.1l0,0l0,0c0,0,0,0,0,0c0,0,0,0,0,0
		c0,0,0,0,0,0c0,0,0,0,0,0c0,0,0,0-0.1,0c-0.1,0-0.2,0-0.3,0c0,0,0,0,0,0c0,0,0,0,0,0c-0.1,0-0.1,0-0.1,0c0,0,0,0,0,0
		c0,0-0.1,0-0.1,0c-0.2,0-0.3,0-0.6,0c0,0,0,0,0,0c-0.3,0-0.7,0-1.2,0c-3.3,0-10.5,0-12.9,0c-0.1,0-0.1,0-0.2,0c0,0-0.1,0-0.1,0
		c-1.1,0.1-1.4,0.7-1.7,2c-0.4,1.7-6.4,23.6-11.3,41.1c-3.3,12.1-6.1,22.1-6.1,22.2c0,0,0,0,0.1,0h0h12.1h0c0,0,0,0,0.1,0
		c3.8,0,6.2-2.9,7.4-6.4c0.3-1,3.5-12.3,6.8-24.4c0-0.1,0-0.1,0.1-0.2l0,0c3.8-13.6,7.9-28.5,8.7-31.4c0,0,0,0,0,0c0,0,0,0,0,0
		c0.1-0.3,0.2-0.6,0.2-0.9c0-0.2,0.1-0.4,0.1-0.6c0,0,0,0,0,0c0,0,0,0,0,0C281.1,68.1,281.1,68,281.1,68z"/>
</g>
</svg>
